<?xml version="1.0" encoding="UTF-8" standalone="no"?>
<!-- Created with Inkscape (http://www.inkscape.org/) -->

<svg
   xmlns:dc="http://purl.org/dc/elements/1.1/"
   xmlns:cc="http://creativecommons.org/ns#"
   xmlns:rdf="http://www.w3.org/1999/02/22-rdf-syntax-ns#"
   xmlns:svg="http://www.w3.org/2000/svg"
   xmlns="http://www.w3.org/2000/svg"
   xmlns:sodipodi="http://sodipodi.sourceforge.net/DTD/sodipodi-0.dtd"
   xmlns:inkscape="http://www.inkscape.org/namespaces/inkscape"
   width="141.73228"
   height="141.73228"
   id="svg3071"
   version="1.1"
   inkscape:version="0.48.4 r9939"
   sodipodi:docname="BASE1Dynamics.svg">
  <defs
     id="defs3073" />
  <sodipodi:namedview
     id="base"
     pagecolor="#ffffff"
     bordercolor="#ffffff"
     borderopacity="0.0"
     inkscape:pageopacity="0.0"
     inkscape:pageshadow="0"
     inkscape:zoom="1.0823183"
     inkscape:cx="20.56788"
     inkscape:cy="65.420152"
     inkscape:document-units="cm"
     inkscape:current-layer="layer1"
     showgrid="false"
     inkscape:window-width="1920"
     inkscape:window-height="1017"
     inkscape:window-x="-8"
     inkscape:window-y="-8"
     inkscape:window-maximized="1"
     units="cm"
     showborder="false"
     inkscape:showpageshadow="false"
     fit-margin-top="0"
     fit-margin-left="0"
     fit-margin-right="0"
     fit-margin-bottom="0" />
  <metadata
     id="metadata3076">
    <rdf:RDF>
      <cc:Work
         rdf:about="">
        <dc:format>image/svg+xml</dc:format>
        <dc:type
           rdf:resource="http://purl.org/dc/dcmitype/StillImage" />
        <dc:title />
      </cc:Work>
    </rdf:RDF>
  </metadata>
  <g
     inkscape:label="Layer 1"
     inkscape:groupmode="layer"
     id="layer1"
     transform="translate(9.1982423e-8,-910.62856)">
    <path
       sodipodi:type="arc"
       style="fill:#eeeeee"
       id="path3079"
       sodipodi:cx="628.57141"
       sodipodi:cy="758.07648"
       sodipodi:rx="1251.4286"
       sodipodi:ry="1111.4286"
       d="m 1880,758.07648 a 1251.4286,1111.4286 0 1 1 -2502.85718,0 1251.4286,1111.4286 0 1 1 2502.85718,0 z"
       transform="matrix(0.05662819,0,0,0.06376131,35.271277,933.15875)" />
    <path
       sodipodi:type="arc"
       style="fill:#f0a513"
       id="path3081"
       sodipodi:cx="772.85712"
       sodipodi:cy="808.07648"
       sodipodi:rx="167.14285"
       sodipodi:ry="235.71428"
       d="m 939.99997,808.07648 a 167.14285,235.71428 0 1 1 -334.28571,0 167.14285,235.71428 0 1 1 334.28571,0 z"
       transform="matrix(0.39246559,0,0,0.27829345,-232.25063,756.83029)" />
    <path
       id="path2995"
       d="m 108.42545,970.32775 c -0.48241,-0.72276 -1.36507,-1.07704 -2.22455,-0.88657 l -25.108416,5.55664 7.644804,-52.94853 c 0.134827,-0.94041 -0.396037,-1.85162 -1.291336,-2.20767 -0.893193,-0.36037 -1.925422,-0.0737 -2.4942,0.69153 l -54.069771,72.48716 c -0.509793,0.68543 -0.543499,1.60705 -0.08426,2.32779 0.459238,0.7187 1.310299,1.08949 2.169785,0.93406 l 27.267664,-4.98929 -7.967113,50.11763 c -0.149557,0.9425 0.374974,1.8641 1.27238,2.2326 0.263323,0.1066 0.535073,0.1574 0.806822,0.1574 0.657255,0 1.295552,-0.3024 1.702123,-0.8469 l 52.312868,-70.26707 c 0.52033,-0.69788 0.54561,-1.63601 0.0632,-2.35878 z"
       inkscape:connector-curvature="0"
       style="fill:#ffffff" />
  </g>
</svg>
