<?xml version="1.0" encoding="iso-8859-1"?>
<!-- Generator: Adobe Illustrator 17.0.0, SVG Export Plug-In . SVG Version: 6.00 Build 0)  -->
<!DOCTYPE svg PUBLIC "-//W3C//DTD SVG 1.1//EN" "http://www.w3.org/Graphics/SVG/1.1/DTD/svg11.dtd">
<svg version="1.1" id="Capa_1" xmlns="http://www.w3.org/2000/svg" xmlns:xlink="http://www.w3.org/1999/xlink" x="0px" y="0px"
	 width="64px" height="64px" viewBox="0 0 64 64" style="enable-background:new 0 0 64 64;" xml:space="preserve">
<path d="M47.262,9.306c-0.412-0.706-1.175-1.109-2.09-1.109H33.939c-1.341,0-2.734,0.875-3.313,2.082L18.713,35.021
	c-0.389,0.807-0.365,1.663,0.058,2.342c0.426,0.685,1.18,1.084,2.074,1.103l8.816,0.111l-6.382,15.953
	c-0.157,0.398-0.487,1.232,0.101,2.089c0.257,0.376,0.698,0.606,1.152,0.606h0.103c0.861,0,1.38-0.653,1.629-0.968l20.622-25.895
	c0.88-1.103,0.517-2.093,0.384-2.381c-0.138-0.276-0.692-1.18-2.097-1.18h-6.562l8.587-15.13
	C47.648,10.873,47.673,10.009,47.262,9.306z"/>
</svg>
