<?xml version="1.0" encoding="utf-8"?>
<!-- Generator: Adobe Illustrator 17.0.2, SVG Export Plug-In . SVG Version: 6.00 Build 0)  -->
<!DOCTYPE svg PUBLIC "-//W3C//DTD SVG 1.0//EN" "http://www.w3.org/TR/2001/REC-SVG-20010904/DTD/svg10.dtd">
<svg version="1.0" id="Layer_1" xmlns="http://www.w3.org/2000/svg" xmlns:xlink="http://www.w3.org/1999/xlink" x="0px" y="0px"
	 width="17.718px" height="29.427px" viewBox="0 0 17.718 29.427" enable-background="new 0 0 17.718 29.427" xml:space="preserve">
<g id="dC7QOv.tif">
	<path d="M15.741,24.502c-0.561-0.616-0.354-2.674-0.354-2.674s1.107-4.825,1.711-5.931s0.62-4.279,0.62-4.279
		S17.6,9.655,16.744,7.235c-0.856-2.42-3.851-4.441-5.872-4.766C10.665,1.333,8.88,0,8.88,0s0.295,2.44-0.03,2.484
		S7.168,2.927,7.168,2.927l0.31,1.003C5.722,4.447,5.02,4.948,5.02,4.948S4.97,5.037,4.645,5.701S0.44,9.463,0.257,9.67
		s-0.078,0.605-0.078,0.605s-0.062,0.811-0.106,0.856s-0.163,0.664,0.051,0.93s0.376,0.59,0.803,0.944
		c0.428,0.354,0.546,0.118,0.546,0.118s0.036,0.135,1.225,0.322c1.461,0.012,1.962-1.059,1.962-1.059s0.428-0.752,1.564-0.531
		c2.272,1.18,3.816,0.292,3.816,0.292s-1.849,1.532-4.603,5.564S4.65,24.502,4.65,24.502H15.741z"/>
	<path d="M16.8,28.955c0,0.261-0.211,0.472-0.472,0.472H3.856c-0.261,0-0.472-0.211-0.472-0.472v-3.532
		c0-0.261,0.211-0.472,0.472-0.472h12.472c0.261,0,0.472,0.211,0.472,0.472V28.955z"/>
</g>
</svg>
