<?xml version="1.0" encoding="utf-8"?>
<!-- Generator: Adobe Illustrator 16.0.0, SVG Export Plug-In . SVG Version: 6.00 Build 0)  -->
<!DOCTYPE svg PUBLIC "-//W3C//DTD SVG 1.1//EN" "http://www.w3.org/Graphics/SVG/1.1/DTD/svg11.dtd">
<svg version="1.1" id="Layer_1" xmlns="http://www.w3.org/2000/svg" xmlns:xlink="http://www.w3.org/1999/xlink" x="0px" y="0px"
	 width="100px" height="100px" viewBox="0 0 100 100" enable-background="new 0 0 100 100" xml:space="preserve">
<g>
	<path d="M40.97,79.965c-0.128,0-0.259-0.024-0.383-0.076c-0.427-0.177-0.676-0.622-0.604-1.078l3.781-24.199L30.82,57.021
		c-0.408,0.076-0.813-0.104-1.03-0.451c-0.218-0.348-0.202-0.793,0.04-1.124l25.666-35c0.271-0.37,0.76-0.508,1.185-0.335
		c0.425,0.174,0.677,0.613,0.612,1.067l-3.629,25.565l11.92-2.682c0.408-0.092,0.827,0.079,1.056,0.428
		c0.229,0.348,0.217,0.803-0.029,1.139L41.777,79.556C41.584,79.819,41.281,79.965,40.97,79.965z M44.971,52.37
		c0.258,0,0.508,0.1,0.696,0.282c0.233,0.227,0.341,0.552,0.291,0.872l-3.364,21.529l20.828-28.455l-10.732,2.414
		c-0.32,0.073-0.656-0.018-0.897-0.24s-0.358-0.551-0.312-0.876l3.272-23.055l-21.816,29.75l11.851-2.204
		C44.848,52.376,44.909,52.37,44.971,52.37z"/>
</g>
</svg>
