<?xml version="1.0" encoding="utf-8"?>
<!-- Generator: Adobe Illustrator 16.0.0, SVG Export Plug-In . SVG Version: 6.00 Build 0)  -->
<!DOCTYPE svg PUBLIC "-//W3C//DTD SVG 1.1//EN" "http://www.w3.org/Graphics/SVG/1.1/DTD/svg11.dtd">
<svg version="1.1" id="Layer_1" xmlns="http://www.w3.org/2000/svg" xmlns:xlink="http://www.w3.org/1999/xlink" x="0px" y="0px"
	 width="100px" height="100px" viewBox="0 0 100 100" enable-background="new 0 0 100 100" xml:space="preserve">
<path d="M68.786,45.457c-0.229-0.349-0.648-0.52-1.056-0.428l-11.919,2.683l3.629-25.566c0.064-0.454-0.188-0.894-0.613-1.066
	c-0.424-0.174-0.914-0.035-1.184,0.334l-25.667,35c-0.242,0.331-0.258,0.776-0.04,1.124c0.218,0.347,0.622,0.526,1.03,0.451
	l12.944-2.409l-3.782,24.199c-0.071,0.455,0.178,0.9,0.604,1.078c0.125,0.051,0.254,0.076,0.383,0.076
	c0.312,0,0.615-0.146,0.808-0.409l24.833-33.928C69.003,46.259,69.015,45.806,68.786,45.457z"/>
</svg>
