<?xml version="1.0" encoding="utf-8"?>
<!-- Generator: Adobe Illustrator 17.0.0, SVG Export Plug-In . SVG Version: 6.00 Build 0)  -->
<!DOCTYPE svg PUBLIC "-//W3C//DTD SVG 1.1//EN" "http://www.w3.org/Graphics/SVG/1.1/DTD/svg11.dtd">
<svg version="1.1" id="Capa_1" xmlns="http://www.w3.org/2000/svg" xmlns:xlink="http://www.w3.org/1999/xlink" x="0px" y="0px"
	 width="64px" height="64px" viewBox="0 0 64 64" enable-background="new 0 0 64 64" xml:space="preserve">
<g>
	<path fill="#1D1D1B" d="M51.822,4.375c-0.351,0.791-0.756,1.526-1.137,2.287c-0.391,0.751-0.797,1.486-1.214,2.21
		c-0.834,1.449-1.692,2.874-2.591,4.257c-0.445,0.697-0.891,1.391-1.358,2.067c-0.465,0.677-0.912,1.371-1.392,2.033
		c-0.944,1.339-1.899,2.667-2.888,3.961c-0.965,1.318-1.997,2.569-2.998,3.851c-1.023,1.259-2.065,2.501-3.107,3.742
		c-1.07,1.213-2.125,2.441-3.207,3.642c-1.085,1.198-2.185,2.381-3.3,3.549l-4.203-10.148c3.702-0.084,7.404-0.066,11.106,0.062
		l14.405,0.498L39.692,35.93c-1.11,1.034-2.226,2.062-3.375,3.057c-1.149,0.995-2.27,2.018-3.454,2.979l-1.756,1.46
		c-0.58,0.492-1.193,0.951-1.788,1.428c-1.189,0.955-2.407,1.881-3.64,2.792c-1.216,0.928-2.491,1.797-3.745,2.688
		c-1.277,0.867-2.557,1.731-3.874,2.558c-1.311,0.833-2.652,1.636-4.018,2.415c-0.691,0.381-1.371,0.773-2.087,1.13
		c-0.715,0.357-1.409,0.735-2.153,1.063c0.329-0.744,0.706-1.438,1.063-2.153c0.357-0.716,0.749-1.396,1.13-2.087
		c0.779-1.365,1.582-2.706,2.415-4.018c0.827-1.317,1.691-2.597,2.558-3.874c0.891-1.253,1.76-2.528,2.688-3.745
		c0.912-1.233,1.837-2.451,2.792-3.64c0.477-0.595,0.936-1.208,1.428-1.788l1.46-1.756c0.96-1.184,1.983-2.305,2.979-3.454
		c0.995-1.149,2.023-2.265,3.057-3.375l4.159,10.042c-3.702,0.128-7.404,0.146-11.106,0.062L9.934,37.386l10.289-9.819
		c1.168-1.115,2.351-2.215,3.549-3.3c1.201-1.082,2.429-2.137,3.642-3.207c1.241-1.042,2.482-2.084,3.742-3.107
		c1.282-1.001,2.533-2.033,3.851-2.998c1.294-0.989,2.622-1.944,3.961-2.888c0.662-0.48,1.356-0.927,2.033-1.392
		c0.675-0.466,1.37-0.913,2.067-1.358c1.383-0.9,2.808-1.758,4.257-2.591c0.724-0.417,1.459-0.824,2.21-1.214
		C50.295,5.131,51.031,4.726,51.822,4.375z"/>
</g>
</svg>
