<?xml version="1.0" encoding="utf-8"?>
<!-- Generator: Adobe Illustrator 16.0.4, SVG Export Plug-In . SVG Version: 6.00 Build 0)  -->
<!DOCTYPE svg PUBLIC "-//W3C//DTD SVG 1.1//EN" "http://www.w3.org/Graphics/SVG/1.1/DTD/svg11.dtd">
<svg version="1.1" id="Layer_1" xmlns="http://www.w3.org/2000/svg" xmlns:xlink="http://www.w3.org/1999/xlink" x="0px" y="0px"
	 width="50px" height="50px" viewBox="0 0 50 50" enable-background="new 0 0 50 50" xml:space="preserve">
<g>
	<g>
		<path d="M31.438,27.097c0.406,0.173,0.811,0.351,1.221,0.511c0.197,0.078,0.271,0.207,0.312,0.411
			c0.092,0.466,0.018,0.913-0.092,1.362c-0.082,0.341-0.234,0.463-0.58,0.519c-0.102,0.017-0.205,0.077-0.289,0.142
			c-0.076,0.059-0.145,0.127-0.215,0.194c0.836,0.356,1.701,0.752,2.564,1.195c0.414,0.213,0.779,0.479,1.086,0.795l0.283,0.293
			v1.403c2.258,0,4.516,0,6.773,0c-0.191-1.28-0.971-2.039-2.15-2.475c-0.768-0.283-1.521-0.611-2.268-0.949
			c-0.213-0.099-0.371-0.311-0.562-0.457c-0.084-0.064-0.188-0.125-0.287-0.143c-0.348-0.055-0.5-0.178-0.582-0.52
			c-0.107-0.448-0.186-0.896-0.092-1.361c0.041-0.204,0.115-0.333,0.312-0.411c0.412-0.159,0.814-0.338,1.221-0.511
			c0.305-0.129,0.322-0.234,0.213-0.549c-0.35-0.989-0.609-1.997-0.693-3.055c-0.055-0.668-0.037-1.351-0.197-2.007h-0.025
			c-0.014-0.061-0.021-0.122-0.037-0.182c-0.295-1.157-1.535-1.786-2.578-1.853c-0.01-0.001-0.018-0.003-0.025-0.003
			c-0.08-0.005-0.156,0.007-0.234,0.012c-0.439,0.061-0.799,0.339-1.217,0.461c-0.543,0.16-0.877,0.66-1.08,1.198
			c-0.287,0.765-0.234,1.581-0.299,2.373c-0.084,1.059-0.344,2.065-0.693,3.054C31.115,26.861,31.135,26.969,31.438,27.097z"/>
		<path d="M14.731,32.531l0.318-0.299c0.289-0.271,0.634-0.511,1.087-0.752l0.318-0.172c0.451-0.243,0.9-0.486,1.364-0.707
			c0.244-0.116,0.498-0.219,0.748-0.325c-0.053-0.146-0.105-0.292-0.15-0.44c-0.059-0.188-0.096-0.377-0.34-0.428
			c-0.061-0.013-0.136-0.117-0.146-0.188c-0.049-0.363-0.086-0.729-0.111-1.096c-0.006-0.076,0.034-0.178,0.088-0.236
			c0.319-0.357,0.497-0.771,0.569-1.246c0.037-0.236,0.171-0.459,0.239-0.691c0.092-0.314,0.167-0.634,0.239-0.953
			c0.026-0.115,0.011-0.239,0.029-0.357c0.026-0.172,0.021-0.305-0.185-0.371c-0.058-0.019-0.104-0.154-0.105-0.238
			c-0.011-0.51-0.004-1.02-0.006-1.53c-0.004-0.312,0-0.628-0.022-0.939c-0.045-0.599-0.396-1.02-0.836-1.383
			c-0.644-0.529-1.392-1.029-2.203-0.964c-0.02,0.001-0.036,0.006-0.055,0.009c-0.019-0.003-0.034-0.008-0.055-0.009
			c-0.812-0.065-1.561,0.435-2.202,0.964c-0.44,0.363-0.791,0.784-0.836,1.383c-0.022,0.312-0.021,0.627-0.022,0.939
			c-0.002,0.511,0.004,1.021-0.006,1.53c-0.002,0.084-0.049,0.22-0.106,0.238c-0.206,0.066-0.211,0.199-0.184,0.371
			c0.019,0.118,0.003,0.242,0.029,0.357c0.071,0.319,0.146,0.638,0.238,0.953c0.068,0.232,0.201,0.455,0.239,0.691
			c0.073,0.475,0.249,0.889,0.57,1.246c0.053,0.061,0.092,0.16,0.087,0.236c-0.025,0.367-0.062,0.731-0.112,1.096
			c-0.01,0.07-0.085,0.176-0.146,0.188c-0.243,0.051-0.281,0.239-0.339,0.428c-0.076,0.25-0.158,0.5-0.255,0.742
			c-0.03,0.073-0.105,0.152-0.18,0.187c-0.432,0.188-0.873,0.36-1.308,0.544c-0.463,0.193-0.931,0.38-1.382,0.596
			c-0.469,0.223-0.92,0.475-1.374,0.719c-0.27,0.144-0.521,0.303-0.731,0.5v0.801c2.411,0,4.82,0,7.229,0v-1.393H14.731z"/>
	</g>
	<path d="M33.9,32.326c-1.59-0.814-3.234-1.49-4.898-2.129c-0.125-0.048-0.273-0.142-0.324-0.252
		c-0.135-0.3-0.229-0.617-0.326-0.933c-0.061-0.201-0.113-0.392-0.336-0.487c-0.059-0.025-0.111-0.143-0.111-0.217
		c0.012-0.73-0.156-1.497,0.385-2.135c0.018-0.021,0.021-0.049,0.035-0.071c0.291-0.64,0.344-1.37,0.752-1.966
		c0.01-0.014,0.012-0.033,0.014-0.051c0.047-0.454,0.098-0.907,0.135-1.361c0.004-0.057-0.045-0.156-0.094-0.174
		c-0.225-0.08-0.213-0.26-0.211-0.441c0-0.887,0-1.774-0.002-2.661c0-0.516-0.152-0.975-0.541-1.325
		c-0.443-0.398-0.9-0.784-1.355-1.17c-0.221-0.187-0.238-0.329-0.033-0.535c0.092-0.09,0.209-0.154,0.312-0.23
		c-0.021-0.035-0.045-0.069-0.066-0.104c-0.139,0-0.279-0.019-0.412,0.003c-0.504,0.081-1.012,0.152-1.506,0.27
		c-0.945,0.223-1.864,0.519-2.633,1.151c-0.524,0.434-0.942,0.938-0.997,1.65c-0.025,0.374-0.022,0.749-0.025,1.123
		c-0.003,0.609,0.005,1.22-0.008,1.828c-0.002,0.1-0.06,0.262-0.127,0.284c-0.246,0.08-0.253,0.237-0.221,0.443
		c0.023,0.141,0.006,0.289,0.036,0.427c0.085,0.381,0.176,0.762,0.285,1.137c0.082,0.279,0.241,0.543,0.285,0.827
		c0.088,0.567,0.298,1.062,0.682,1.489c0.062,0.07,0.111,0.189,0.104,0.283c-0.03,0.437-0.074,0.873-0.134,1.307
		c-0.013,0.085-0.102,0.211-0.175,0.227c-0.29,0.062-0.335,0.284-0.403,0.51c-0.092,0.299-0.188,0.597-0.306,0.886
		c-0.035,0.09-0.126,0.185-0.214,0.223c-0.517,0.226-1.042,0.433-1.562,0.649c-0.554,0.232-1.111,0.455-1.65,0.712
		c-0.558,0.267-1.098,0.565-1.642,0.858c-0.32,0.17-0.621,0.36-0.872,0.598v0.955c6.327,0,12.654,0,18.982,0v-0.995
		C34.49,32.688,34.217,32.488,33.9,32.326z"/>
</g>
</svg>
