<?xml version="1.0" encoding="UTF-8" standalone="no"?>
<!-- Generator: Adobe Illustrator 17.0.0, SVG Export Plug-In . SVG Version: 6.00 Build 0)  -->

<svg
   xmlns:dc="http://purl.org/dc/elements/1.1/"
   xmlns:cc="http://creativecommons.org/ns#"
   xmlns:rdf="http://www.w3.org/1999/02/22-rdf-syntax-ns#"
   xmlns:svg="http://www.w3.org/2000/svg"
   xmlns="http://www.w3.org/2000/svg"
   xmlns:sodipodi="http://sodipodi.sourceforge.net/DTD/sodipodi-0.dtd"
   xmlns:inkscape="http://www.inkscape.org/namespaces/inkscape"
   version="1.1"
   id="Capa_1"
   x="0px"
   y="0px"
   width="141.73228"
   height="141.73228"
   viewBox="0 0 141.73228 141.73228"
   enable-background="new 0 0 64 64"
   xml:space="preserve"
   inkscape:version="0.48.4 r9939"
   sodipodi:docname="originality1.svg"><metadata
   id="metadata3005"><rdf:RDF><cc:Work
       rdf:about=""><dc:format>image/svg+xml</dc:format><dc:type
         rdf:resource="http://purl.org/dc/dcmitype/StillImage" /><dc:title></dc:title></cc:Work></rdf:RDF></metadata><defs
   id="defs3003" /><sodipodi:namedview
   pagecolor="#ffffff"
   bordercolor="#666666"
   borderopacity="1"
   objecttolerance="10"
   gridtolerance="10"
   guidetolerance="10"
   inkscape:pageopacity="0"
   inkscape:pageshadow="2"
   inkscape:window-width="1920"
   inkscape:window-height="1017"
   id="namedview3001"
   showgrid="false"
   inkscape:zoom="5.39"
   inkscape:cx="61.216082"
   inkscape:cy="64.14798"
   inkscape:window-x="-8"
   inkscape:window-y="-8"
   inkscape:window-maximized="1"
   inkscape:current-layer="layer1"
   units="cm"
   inkscape:document-units="cm" />
<g
   inkscape:groupmode="layer"
   id="layer1"
   inkscape:label="Fondo"
   transform="translate(0,77.73228)"><g
     id="layer1-7"
     inkscape:label="Layer 1"
     transform="matrix(2.5395949,0,0,2.539595,1211.7498,-4052.5155)"
     inkscape:export-xdpi="90"
     inkscape:export-ydpi="90"
     inkscape:export-filename="D:\Dropbox\HTML\iconos\iconos creados\originality2.png"
     style="fill:#f5f5f5"><path
       transform="matrix(0.02229812,0,0,0.02510688,-463.2544,1573.9964)"
       d="m 1880,758.07648 c 0,613.82502 -560.2837,1111.42862 -1251.42859,1111.42862 -691.144924,0 -1251.42859,-497.6036 -1251.42859,-1111.42862 0,-613.82506 560.283666,-1111.42859 1251.42859,-1111.42859 C 1319.7163,-353.35211 1880,144.25142 1880,758.07648 z"
       sodipodi:ry="1111.4286"
       sodipodi:rx="1251.4286"
       sodipodi:cy="758.07648"
       sodipodi:cx="628.57141"
       id="path3079"
       style="fill:#f5f5f5"
       sodipodi:type="arc" /><path
       transform="matrix(0.15453865,0,0,0.10958182,-568.7824,1504.3164)"
       d="m 939.99997,808.07648 c 0,130.1814 -74.8324,235.71432 -167.14285,235.71432 -92.31045,0 -167.14286,-105.53292 -167.14286,-235.71432 0,-130.1814 74.83241,-235.71428 167.14286,-235.71428 92.31045,0 167.14285,105.53288 167.14285,235.71428 z"
       sodipodi:ry="235.71428"
       sodipodi:rx="167.14285"
       sodipodi:cy="808.07648"
       sodipodi:cx="772.85712"
       id="path3081"
       style="fill:#f5f5f5"
       sodipodi:type="arc" /></g><path
     style="fill:#c0c0c0;fill-opacity:1"
     d="m 95.446138,103.93795 c -4.06404,-0.66564 -7.653322,-4.007692 -8.705475,-8.105843 -0.438928,-1.709628 -0.379769,-4.327853 0.131686,-5.828102 1.515605,-4.445723 5.854562,-7.608367 10.416768,-7.592731 4.833893,0.01657 9.578303,3.659874 10.505413,8.067279 0.30631,1.45613 0.30472,4.371377 -0.003,5.658627 -1.17181,4.9007 -7.11669,8.65716 -12.345312,7.80077 z"
     id="path2998"
     inkscape:connector-curvature="0"
     transform="translate(0,-77.73228)" /><path
     sodipodi:type="arc"
     style="fill:#808080;fill-opacity:1"
     id="path3000"
     sodipodi:cx="28.107607"
     sodipodi:cy="80.507797"
     sodipodi:rx="40.72356"
     sodipodi:ry="54.174397"
     d="m 68.831167,80.507797 a 40.72356,54.174397 0 1 1 -81.44712,0 40.72356,54.174397 0 1 1 81.44712,0 z"
     transform="matrix(1.6109674,0,0,1.210984,25.745149,-105.19247)" /></g><path
   d="M 58.681856,7.4425251"
   id="path2997"
   inkscape:connector-curvature="0" />
<path
   d="m 69.965275,23.543559 c -34.129614,0 -61.7959608,21.51037 -61.7959608,48.049139 0,16.380387 23.1103128,16.456575 42.3629808,13.688417 14.272524,-2.057072 25.52801,3.428453 25.52801,14.348705 0,10.94565 12.070694,19.42789 25.185155,13.43446 18.25969,-8.35527 30.51577,-23.796 30.51577,-41.471582 0,-26.538769 -27.66634,-48.049139 -61.795955,-48.049139 z m 30.835755,17.218454 c 3.2456,0 5.87409,2.641179 5.87409,5.866465 0,3.250681 -2.63102,5.891861 -5.87409,5.891861 -3.245595,0 -5.874076,-2.64118 -5.874076,-5.891861 0,-3.225286 2.628481,-5.866465 5.874076,-5.866465 z M 31.015509,59.275662 c -3.245602,0 -5.874084,-2.64118 -5.874084,-5.866465 0,-3.250682 2.631021,-5.891861 5.874084,-5.891861 3.243063,0 5.874083,2.641179 5.874083,5.891861 0,3.225285 -2.63102,5.866465 -5.874083,5.866465 z M 50.235163,46.653874 c -3.245603,0 -5.874083,-2.641179 -5.874083,-5.891861 0,-3.250681 2.63102,-5.866465 5.874083,-5.866465 3.245601,0 5.874083,2.641179 5.874083,5.866465 0.0026,3.250682 -2.628482,5.891861 -5.874083,5.891861 z m 25.604194,-2.082468 c -3.245601,0 -5.874082,-2.615784 -5.874082,-5.866465 0,-3.250682 2.631021,-5.866465 5.874082,-5.866465 3.245605,0 5.874085,2.615783 5.874085,5.866465 0,3.250681 -2.62848,5.866465 -5.874085,5.866465 z m 21.106574,58.537664 c -5.373782,0 -9.729187,-4.368104 -9.729187,-9.726647 0,-5.383942 4.355405,-9.72665 9.729187,-9.72665 5.373779,0 9.729189,4.342708 9.729189,9.72665 0,5.358543 -4.35541,9.726647 -9.729189,9.726647 z M 112.55173,75.173526 c -3.2456,0 -5.87406,-2.641178 -5.87406,-5.866463 0,-3.250683 2.63101,-5.891861 5.87406,-5.891861 3.24562,0 5.8741,2.641178 5.8741,5.891861 0,3.225285 -2.63102,5.866463 -5.8741,5.866463 z"
   id="path2999"
   inkscape:connector-curvature="0"
   style="fill:#f2f2f2" />
<path
   style="fill:#a9a9a9"
   d="m 29.232126,59.402641 c -2.702557,-0.914254 -4.341457,-3.225286 -4.300651,-6.01884 0.02236,-1.549154 0.644628,-2.945931 1.814365,-4.114145 2.999077,-2.971325 8.158695,-2.184051 10.122195,1.549154 0.740572,1.422172 0.761402,4.164936 0.0416,5.485525 -1.459143,2.666575 -4.90465,4.063353 -7.677505,3.098306 l 0,0 z"
   id="path3007"
   inkscape:connector-curvature="0" /><path
   style="fill:#a9a9a9"
   d="m 48.083637,46.501498 c -2.702557,-0.93965 -4.341457,-3.250681 -4.30065,-6.044237 0.02236,-1.523756 0.644628,-2.945929 1.814366,-4.114143 2.999074,-2.971327 8.158695,-2.184052 10.122194,1.549152 0.740571,1.422174 0.761401,4.164936 0.04161,5.485526 -1.459144,2.691972 -4.904652,4.088747 -7.677506,3.123702 l 0,0 z"
   id="path3007-1"
   inkscape:connector-curvature="0" /><path
   style="fill:#c0c0c0"
   d="m 73.932431,44.723782 c -2.702559,-0.939651 -4.34146,-3.225286 -4.300652,-6.018841 0.02235,-1.549154 0.644627,-2.945931 1.814365,-4.114144 2.999075,-2.971326 8.158695,-2.184052 10.122195,1.549153 0.740571,1.396777 0.761401,4.13954 0.04161,5.485525 -1.459143,2.666575 -4.904651,4.063353 -7.677505,3.098307 l 0,0 z"
   id="path3007-7"
   inkscape:connector-curvature="0" /><path
   style="fill:#a9a9a9"
   d="m 98.606283,52.571129 c -2.702563,-0.939649 -4.341462,-3.250681 -4.300657,-6.044234 0.02235,-1.523759 0.644628,-2.945931 1.814366,-4.114146 2.99908,-2.971326 8.158698,-2.184052 10.122208,1.549154 0.74055,1.422173 0.76139,4.164936 0.0415,5.485526 -1.45915,2.69197 -4.90465,4.088748 -7.677503,3.1237 l 0,0 z"
   id="path3007-4"
   inkscape:connector-curvature="0" /><path
   style="fill:#a9a9a9"
   d="m 110.55154,74.894171 c -2.70255,-0.93965 -4.34145,-3.250682 -4.30064,-6.044236 0.0223,-1.523758 0.64463,-2.945931 1.81437,-4.114145 2.99907,-2.971327 8.15869,-2.184051 10.12219,1.549153 0.74056,1.422174 0.76139,4.164936 0.0415,5.485527 -1.45916,2.69197 -4.90467,4.088747 -7.67751,3.123701 l 0,0 z"
   id="path3007-0"
   inkscape:connector-curvature="0" /><path
   style="fill:#a9a9a9"
   d="m 93.81043,103.64239 c -4.733812,-1.67614 -7.604514,-5.790278 -7.533036,-10.767887 0.03917,-2.742762 1.12913,-5.25696 3.178049,-7.314033 5.253196,-5.307754 14.290797,-3.910975 17.730077,2.742762 1.29719,2.5142 1.33368,7.415616 0.0729,9.777436 -2.55584,4.774442 -8.59101,7.263242 -13.447949,5.561722 l 0,0 z"
   id="path3007-9"
   inkscape:connector-curvature="0" /><path
   id="path3058"
   d="m 61.264584,57.413998 c 0.830026,1.082886 1.033572,1.856379 2.121422,3.911658 -0.70337,0.574592 -2.053567,1.922679 -2.989891,4.243154 C 58.525741,64.287023 57.652752,64.110226 56.662151,63.115736 50.1916,56.640504 34.339773,33.435753 34.884825,32.75066 35.457026,32.043468 55.565262,49.988476 61.264584,57.413998 z m 3.989532,5.701738 c 2.811223,-0.574594 5.58625,1.524884 7.438531,6.806727 1.854546,5.281844 5.165587,7.381322 5.807891,7.248723 -3.45579,1.502784 -13.995022,5.281843 -16.614003,-9.171402 1.112735,-3.469662 3.367581,-4.884048 3.367581,-4.884048 z"
   inkscape:connector-curvature="0"
   style="fill:#696969" /><g
   inkscape:groupmode="layer"
   id="layer2"
   inkscape:label="Paleta"
   transform="translate(0,77.73228)" /></svg>