<?xml version="1.0" encoding="UTF-8" standalone="no"?>
<!-- Generator: Adobe Illustrator 17.0.0, SVG Export Plug-In . SVG Version: 6.00 Build 0)  -->

<svg
   xmlns:dc="http://purl.org/dc/elements/1.1/"
   xmlns:cc="http://creativecommons.org/ns#"
   xmlns:rdf="http://www.w3.org/1999/02/22-rdf-syntax-ns#"
   xmlns:svg="http://www.w3.org/2000/svg"
   xmlns="http://www.w3.org/2000/svg"
   xmlns:sodipodi="http://sodipodi.sourceforge.net/DTD/sodipodi-0.dtd"
   xmlns:inkscape="http://www.inkscape.org/namespaces/inkscape"
   version="1.1"
   id="Capa_1"
   x="0px"
   y="0px"
   width="141.73228"
   height="141.73228"
   viewBox="0 0 141.73228 141.73228"
   enable-background="new 0 0 64 64"
   xml:space="preserve"
   inkscape:version="0.48.4 r9939"
   sodipodi:docname="originality2.svg"><metadata
   id="metadata3005"><rdf:RDF><cc:Work
       rdf:about=""><dc:format>image/svg+xml</dc:format><dc:type
         rdf:resource="http://purl.org/dc/dcmitype/StillImage" /><dc:title /></cc:Work></rdf:RDF></metadata><defs
   id="defs3003" /><sodipodi:namedview
   pagecolor="#ffffff"
   bordercolor="#666666"
   borderopacity="1"
   objecttolerance="10"
   gridtolerance="10"
   guidetolerance="10"
   inkscape:pageopacity="0"
   inkscape:pageshadow="2"
   inkscape:window-width="1920"
   inkscape:window-height="1017"
   id="namedview3001"
   showgrid="false"
   inkscape:zoom="5.39"
   inkscape:cx="61.216082"
   inkscape:cy="53.753394"
   inkscape:window-x="-8"
   inkscape:window-y="-8"
   inkscape:window-maximized="1"
   inkscape:current-layer="Capa_1"
   units="cm"
   inkscape:document-units="cm" />
<g
   inkscape:groupmode="layer"
   id="layer1"
   inkscape:label="Fondo"
   transform="translate(0,77.73228)"><g
     id="layer1-1"
     inkscape:label="Layer 1"
     transform="matrix(2.5395949,0,0,2.539595,1211.7498,-4052.5154)"><path
       transform="matrix(0.02229812,0,0,0.02510688,-463.2544,1573.9964)"
       d="m 1880,758.07648 c 0,613.82502 -560.2837,1111.42862 -1251.42859,1111.42862 -691.144924,0 -1251.42859,-497.6036 -1251.42859,-1111.42862 0,-613.82506 560.283666,-1111.42859 1251.42859,-1111.42859 C 1319.7163,-353.35211 1880,144.25142 1880,758.07648 z"
       sodipodi:ry="1111.4286"
       sodipodi:rx="1251.4286"
       sodipodi:cy="758.07648"
       sodipodi:cx="628.57141"
       id="path3079"
       style="fill:#eeeeee"
       sodipodi:type="arc" /><path
       transform="matrix(0.15453865,0,0,0.10958182,-568.7824,1504.3164)"
       d="m 939.99997,808.07648 c 0,130.1814 -74.8324,235.71432 -167.14285,235.71432 -92.31045,0 -167.14286,-105.53292 -167.14286,-235.71432 0,-130.1814 74.83241,-235.71428 167.14286,-235.71428 92.31045,0 167.14285,105.53288 167.14285,235.71428 z"
       sodipodi:ry="235.71428"
       sodipodi:rx="167.14285"
       sodipodi:cy="808.07648"
       sodipodi:cx="772.85712"
       id="path3081"
       style="fill:#0169c9"
       sodipodi:type="arc" /></g></g><path
   d="M 58.681856,7.4425251"
   id="path2997"
   inkscape:connector-curvature="0" />
<path
   d="m 69.965275,23.543559 c -34.129614,0 -61.7959608,21.51037 -61.7959608,48.049139 0,16.380387 23.1103128,16.456575 42.3629808,13.688417 14.272524,-2.057072 25.52801,3.428453 25.52801,14.348705 0,10.94565 12.070694,19.42789 25.185155,13.43446 18.25969,-8.35527 30.51577,-23.796 30.51577,-41.471582 0,-26.538769 -27.66634,-48.049139 -61.795955,-48.049139 z m 30.835755,17.218454 c 3.2456,0 5.87409,2.641179 5.87409,5.866465 0,3.250681 -2.63102,5.891861 -5.87409,5.891861 -3.245595,0 -5.874076,-2.64118 -5.874076,-5.891861 0,-3.225286 2.628481,-5.866465 5.874076,-5.866465 z M 31.015509,59.275662 c -3.245602,0 -5.874084,-2.64118 -5.874084,-5.866465 0,-3.250682 2.631021,-5.891861 5.874084,-5.891861 3.243063,0 5.874083,2.641179 5.874083,5.891861 0,3.225285 -2.63102,5.866465 -5.874083,5.866465 z M 50.235163,46.653874 c -3.245603,0 -5.874083,-2.641179 -5.874083,-5.891861 0,-3.250681 2.63102,-5.866465 5.874083,-5.866465 3.245601,0 5.874083,2.641179 5.874083,5.866465 0.0026,3.250682 -2.628482,5.891861 -5.874083,5.891861 z m 25.604194,-2.082468 c -3.245601,0 -5.874082,-2.615784 -5.874082,-5.866465 0,-3.250682 2.631021,-5.866465 5.874082,-5.866465 3.245605,0 5.874085,2.615783 5.874085,5.866465 0,3.250681 -2.62848,5.866465 -5.874085,5.866465 z m 21.106574,58.537664 c -5.373782,0 -9.729187,-4.368104 -9.729187,-9.726647 0,-5.383942 4.355405,-9.72665 9.729187,-9.72665 5.373779,0 9.729189,4.342708 9.729189,9.72665 0,5.358543 -4.35541,9.726647 -9.729189,9.726647 z M 112.55173,75.173526 c -3.2456,0 -5.87406,-2.641178 -5.87406,-5.866463 0,-3.250683 2.63101,-5.891861 5.87406,-5.891861 3.24562,0 5.8741,2.641178 5.8741,5.891861 0,3.225285 -2.63102,5.866463 -5.8741,5.866463 z"
   id="path2999"
   inkscape:connector-curvature="0"
   style="fill:#f2f2f2" />
<path
   style="fill:#993366"
   d="m 29.232126,59.402641 c -2.702557,-0.914254 -4.341457,-3.225286 -4.300651,-6.01884 0.02236,-1.549154 0.644628,-2.945931 1.814365,-4.114145 2.999077,-2.971325 8.158695,-2.184051 10.122195,1.549154 0.740572,1.422172 0.761402,4.164936 0.0416,5.485525 -1.459143,2.666575 -4.90465,4.063353 -7.677505,3.098306 l 0,0 z"
   id="path3007"
   inkscape:connector-curvature="0" /><path
   style="fill:#5c3566"
   d="m 48.083637,46.501498 c -2.702557,-0.93965 -4.341457,-3.250681 -4.30065,-6.044237 0.02236,-1.523756 0.644628,-2.945929 1.814366,-4.114143 2.999074,-2.971327 8.158695,-2.184052 10.122194,1.549152 0.740571,1.422174 0.761401,4.164936 0.04161,5.485526 -1.459144,2.691972 -4.904652,4.088747 -7.677506,3.123702 l 0,0 z"
   id="path3007-1"
   inkscape:connector-curvature="0" /><path
   style="fill:#55679e"
   d="m 73.932431,44.723782 c -2.702559,-0.939651 -4.34146,-3.225286 -4.300652,-6.018841 0.02235,-1.549154 0.644627,-2.945931 1.814365,-4.114144 2.999075,-2.971326 8.158695,-2.184052 10.122195,1.549153 0.740571,1.396777 0.761401,4.13954 0.04161,5.485525 -1.459143,2.666575 -4.904651,4.063353 -7.677505,3.098307 l 0,0 z"
   id="path3007-7"
   inkscape:connector-curvature="0" /><path
   style="fill:#336699"
   d="m 98.606283,52.571129 c -2.702563,-0.939649 -4.341462,-3.250681 -4.300657,-6.044234 0.02235,-1.523759 0.644628,-2.945931 1.814366,-4.114146 2.99908,-2.971326 8.158698,-2.184052 10.122208,1.549154 0.74055,1.422173 0.76139,4.164936 0.0415,5.485526 -1.45915,2.69197 -4.90465,4.088748 -7.677503,3.1237 l 0,0 z"
   id="path3007-4"
   inkscape:connector-curvature="0" /><path
   style="fill:#0197fd"
   d="m 110.55154,74.894171 c -2.70255,-0.93965 -4.34145,-3.250682 -4.30064,-6.044236 0.0223,-1.523758 0.64463,-2.945931 1.81437,-4.114145 2.99907,-2.971327 8.15869,-2.184051 10.12219,1.549153 0.74056,1.422174 0.76139,4.164936 0.0415,5.485527 -1.45916,2.69197 -4.90467,4.088747 -7.67751,3.123701 l 0,0 z"
   id="path3007-0"
   inkscape:connector-curvature="0" /><path
   style="fill:#339900"
   d="m 93.81043,103.64239 c -4.733812,-1.67614 -7.604514,-5.790278 -7.533036,-10.767887 0.03917,-2.742762 1.12913,-5.25696 3.178049,-7.314033 5.253196,-5.307754 14.290797,-3.910975 17.730077,2.742762 1.29719,2.5142 1.33368,7.415616 0.0729,9.777436 -2.55584,4.774442 -8.59101,7.263242 -13.447949,5.561722 l 0,0 z"
   id="path3007-9"
   inkscape:connector-curvature="0" /><path
   id="path3058"
   d="m 65.898214,52.190192 c 0.812378,1.244399 1.011596,2.133259 2.076316,4.495083 -0.688415,0.660293 -2.009904,2.209447 -2.92632,4.876022 C 63.217604,60.088331 62.363176,59.885165 61.393637,58.742346 55.060662,51.301332 39.545875,24.635585 40.079338,23.84831 40.639373,23.03564 60.32007,43.657151 65.898214,52.190192 z m 3.904707,6.552154 c 2.751451,-0.660295 5.467476,1.752321 7.280374,7.821953 1.815115,6.069632 5.055757,8.482248 5.684404,8.329872 -3.382313,1.726925 -13.697461,6.069632 -16.260758,-10.53932 1.089076,-3.987163 3.29598,-5.612505 3.29598,-5.612505 z"
   inkscape:connector-curvature="0"
   style="fill:#483737" /><g
   inkscape:groupmode="layer"
   id="layer2"
   inkscape:label="Paleta"
   transform="translate(0,77.73228)" /></svg>