<?xml version="1.0" encoding="UTF-8" standalone="no"?>
<!-- Created with Inkscape (http://www.inkscape.org/) -->

<svg
   xmlns:dc="http://purl.org/dc/elements/1.1/"
   xmlns:cc="http://creativecommons.org/ns#"
   xmlns:rdf="http://www.w3.org/1999/02/22-rdf-syntax-ns#"
   xmlns:svg="http://www.w3.org/2000/svg"
   xmlns="http://www.w3.org/2000/svg"
   xmlns:sodipodi="http://sodipodi.sourceforge.net/DTD/sodipodi-0.dtd"
   xmlns:inkscape="http://www.inkscape.org/namespaces/inkscape"
   width="354.33069"
   height="354.33069"
   id="svg3071"
   version="1.1"
   inkscape:version="0.48.4 r9939"
   sodipodi:docname="dynamics1.svg">
  <defs
     id="defs3073" />
  <sodipodi:namedview
     id="base"
     pagecolor="#ffffff"
     bordercolor="#ffffff"
     borderopacity="0.0"
     inkscape:pageopacity="0.0"
     inkscape:pageshadow="0"
     inkscape:zoom="1.0823183"
     inkscape:cx="-132.34463"
     inkscape:cy="221.99064"
     inkscape:document-units="cm"
     inkscape:current-layer="layer1"
     showgrid="false"
     inkscape:window-width="1366"
     inkscape:window-height="705"
     inkscape:window-x="-8"
     inkscape:window-y="-8"
     inkscape:window-maximized="1"
     units="cm"
     showborder="false"
     inkscape:showpageshadow="false"
     fit-margin-top="0"
     fit-margin-left="0"
     fit-margin-right="0"
     fit-margin-bottom="0" />
  <metadata
     id="metadata3076">
    <rdf:RDF>
      <cc:Work
         rdf:about="">
        <dc:format>image/svg+xml</dc:format>
        <dc:type
           rdf:resource="http://purl.org/dc/dcmitype/StillImage" />
        <dc:title></dc:title>
      </cc:Work>
    </rdf:RDF>
  </metadata>
  <g
     inkscape:label="Layer 1"
     inkscape:groupmode="layer"
     id="layer1"
     transform="translate(9.1982423e-8,-698.03014)">
    <path
       sodipodi:type="arc"
       style="fill:#eeeeee"
       id="path3079"
       sodipodi:cx="628.57141"
       sodipodi:cy="758.07648"
       sodipodi:rx="1251.4286"
       sodipodi:ry="1111.4286"
       d="m 1880,758.07648 c 0,613.82502 -560.2837,1111.42862 -1251.42859,1111.42862 -691.144924,0 -1251.42859,-497.6036 -1251.42859,-1111.42862 0,-613.82506 560.283666,-1111.42859 1251.42859,-1111.42859 C 1319.7163,-353.35211 1880,144.25142 1880,758.07648 z"
       transform="matrix(0.14157049,0,0,0.15940327,88.178199,754.35562)" />
    <path
       sodipodi:type="arc"
       style="fill:#ff9900;fill-opacity:1"
       id="path3081"
       sodipodi:cx="772.85712"
       sodipodi:cy="808.07648"
       sodipodi:rx="167.14285"
       sodipodi:ry="235.71428"
       d="m 939.99997,808.07648 c 0,130.1814 -74.8324,235.71432 -167.14285,235.71432 -92.31045,0 -167.14286,-105.53292 -167.14286,-235.71432 0,-130.1814 74.83241,-235.71428 167.14286,-235.71428 92.31045,0 167.14285,105.53288 167.14285,235.71428 z"
       transform="matrix(0.98116422,0,0,0.69573361,-580.62674,313.53447)" />
    <path
       id="path2995"
       d="m 271.06368,847.27812 c -1.20602,-1.8069 -3.41269,-2.6926 -5.56138,-2.21643 l -62.77106,13.8916 19.11202,-132.37132 c 0.33707,-2.35103 -0.9901,-4.62905 -3.22834,-5.51918 -2.23299,-0.90092 -4.81356,-0.18425 -6.2355,1.72883 L 77.204958,904.00951 c -1.274484,1.71358 -1.35875,4.01763 -0.210667,5.81948 1.148095,1.79675 3.27575,2.72372 5.424465,2.33515 L 150.58793,899.69091 130.67014,1024.985 c -0.37389,2.3562 0.93744,4.6602 3.18096,5.5815 0.6583,0.2665 1.33768,0.3935 2.01705,0.3935 1.64314,0 3.23888,-0.756 4.25531,-2.1173 L 270.90567,853.17506 c 1.30081,-1.7447 1.36403,-4.09002 0.1581,-5.89694 z"
       inkscape:connector-curvature="0"
       style="fill:#ffffff" />
  </g>
</svg>
