<?xml version="1.0" encoding="iso-8859-1"?>
<!-- Generator: Adobe Illustrator 17.1.0, SVG Export Plug-In . SVG Version: 6.00 Build 0)  -->
<!DOCTYPE svg PUBLIC "-//W3C//DTD SVG 1.1//EN" "http://www.w3.org/Graphics/SVG/1.1/DTD/svg11.dtd">
<svg version="1.1" id="Capa_1" xmlns="http://www.w3.org/2000/svg" xmlns:xlink="http://www.w3.org/1999/xlink" x="0px" y="0px"
	 viewBox="0 0 64 64" style="enable-background:new 0 0 64 64;" xml:space="preserve">
<path d="M29.732,34.666c-1.47-1.251-1.648-3.464-0.398-4.934c0.665-0.783,1.638-1.232,2.667-1.232c0.829,0,1.634,0.296,2.267,0.834
	l3.08,2.62C37.181,29.133,34.863,26.89,32,26.89c-2.971,0-5.379,2.408-5.379,5.379c0,2.971,2.408,5.379,5.379,5.379
	c0.378,0,0.746-0.041,1.102-0.115L29.732,34.666z"/>
<path d="M43.796,46.651c-3.231,2.606-7.332,4.175-11.796,4.175c-10.381,0-18.826-8.445-18.826-18.826S21.619,13.174,32,13.174
	S50.826,21.619,50.826,32c0,3.393-0.915,6.569-2.492,9.321l3.745,3.186c2.271-3.632,3.588-7.917,3.588-12.507
	C55.667,18.95,45.05,8.333,32,8.333S8.333,18.95,8.333,32S18.95,55.667,32,55.667c5.941,0,11.374-2.206,15.535-5.835L43.796,46.651z
	"/>
<path d="M36.788,40.719c-1.421,0.784-3.053,1.232-4.788,1.232c-5.487,0-9.951-4.464-9.951-9.951s4.464-9.951,9.951-9.951
	c5.487,0,9.951,4.464,9.951,9.951c0,1.195-0.223,2.337-0.611,3.4l3.845,3.271c1.02-2.007,1.607-4.269,1.607-6.671
	c0-8.156-6.636-14.792-14.792-14.792c-8.156,0-14.792,6.636-14.792,14.792c0,8.156,6.636,14.792,14.792,14.792
	c3.223,0,6.199-1.048,8.631-2.804L36.788,40.719z"/>
<path d="M55.857,52.254c0.15-0.178,0.257-0.376,0.336-0.582l5.119,0.286l-6.02-5.208l-1.844,0.829L33.296,30.435
	c-0.841-0.715-2.104-0.614-2.819,0.227c-0.716,0.841-0.614,2.103,0.228,2.819l20.337,17.301l-0.291,1.75l5.5,4.8l-0.525-4.955
	C55.768,52.335,55.816,52.301,55.857,52.254z"/>
</svg>
