<?xml version="1.0" encoding="utf-8"?>
<!-- Generator: Adobe Illustrator 17.0.2, SVG Export Plug-In . SVG Version: 6.00 Build 0)  -->
<!DOCTYPE svg PUBLIC "-//W3C//DTD SVG 1.0//EN" "http://www.w3.org/TR/2001/REC-SVG-20010904/DTD/svg10.dtd">
<svg version="1.0" id="Layer_1" xmlns="http://www.w3.org/2000/svg" xmlns:xlink="http://www.w3.org/1999/xlink" x="0px" y="0px"
	 width="19.975px" height="31.538px" viewBox="0 0 19.975 31.538" enable-background="new 0 0 19.975 31.538" xml:space="preserve">
<path d="M18.578,27.178h-0.092v-0.335c0-0.43-0.348-0.778-0.778-0.778h-0.363c-0.046-0.458-0.065-0.912,0.029-1.339
	c0.42-1.889,0.935-3.763,1.522-5.607c0.965-3.032,1.547-6.064,0.587-9.211c-1.073-3.518-3.199-6.014-6.814-7.097
	c-0.251-0.075-0.507-0.308-0.65-0.537C11.505,1.448,10.933,0.689,10.007,0C9.964,0.409,9.916,0.67,9.914,0.932
	C9.911,1.32,9.926,1.71,9.96,2.097c0.047,0.537-0.118,0.861-0.714,0.909c-0.333,0.026-0.658,0.151-0.97,0.227
	c0,1.208,0,1.208-1.095,1.653c-0.36,0.146-0.741,0.256-1.073,0.45C5.84,5.492,5.607,5.727,5.4,5.964
	c-0.48,0.55-0.88,1.18-1.41,1.672C2.93,8.62,1.822,9.554,0.699,10.467c-0.484,0.394-0.852,0.75-0.611,1.443
	c0.07,0.201-0.026,0.466-0.07,0.698c-0.135,0.714,0.478,1.944,1.137,2.263c1.561,0.756,2.79,0.548,4.026-0.704
	c0.583-0.59,1.222-0.823,2.047-0.538c1.134,0.392,2.293,0.683,3.648,0.365c-0.267,0.281-0.424,0.452-0.587,0.617
	c-1.549,1.574-3.045,3.194-4.179,5.105c-0.901,1.518-1.637,3.115-1.607,4.923c0.008,0.473,0.061,0.946,0.127,1.424H4.475
	c-0.43,0-0.778,0.348-0.778,0.778v0.335H3.605c-0.486,0-0.881,0.394-0.881,0.881v3.48l16.735-0.003v-3.477
	C19.459,27.572,19.065,27.178,18.578,27.178z"/>
</svg>
