<?xml version="1.0" encoding="utf-8"?>
<!-- Generator: Adobe Illustrator 16.0.4, SVG Export Plug-In . SVG Version: 6.00 Build 0)  -->
<!DOCTYPE svg PUBLIC "-//W3C//DTD SVG 1.1//EN" "http://www.w3.org/Graphics/SVG/1.1/DTD/svg11.dtd">
<svg version="1.1" id="Layer_1" xmlns="http://www.w3.org/2000/svg" xmlns:xlink="http://www.w3.org/1999/xlink" x="0px" y="0px"
	 width="50px" height="50px" viewBox="0 0 50 50" enable-background="new 0 0 50 50" xml:space="preserve">
<path d="M38.805,27.254c-3.782,2.041-4.146-1.672-4.146-1.672c-3.129-0.363-5.456-3.857-5.456-3.857
	c-4.222,2.185-1.87,8.338-0.049,10.701c0.174,0.225,0.317,0.46,0.448,0.701h3.987v4.166h3.973v5.166H10.229v-5.166h3.973v-4.166
	h0.922c-3.342-4.465-2.434-8.661-1.419-11.455c1.252-3.445,2.946-5.334,5.416-7.344c3.667-2.99,10.445-3.367,10.445-3.367
	c0.045-0.254,0.234-0.549,0.501-0.855c-0.812,0.027-1.802,0.093-2.931,0.238c-0.774,0.146-1.629,0.232-2.498,0.49
	c-0.885,0.189-1.785,0.496-2.705,0.852c-0.921,0.34-1.823,0.826-2.716,1.336c-0.847,0.586-1.747,1.136-2.458,1.91
	c-0.818,0.668-1.413,1.533-2.025,2.363c-0.637,0.812-0.951,1.803-1.426,2.662c-0.356,0.912-0.555,1.852-0.822,2.711
	c-0.241,0.867-0.237,1.738-0.357,2.514c-0.102,0.783-0.182,1.502-0.125,2.146c0.02,0.641,0.037,1.199,0.05,1.658
	c0.026,0.922,0.042,1.447,0.042,1.447l-0.125,0.014c0,0-0.111-0.516-0.256-1.443c-0.068-0.469-0.15-1.033-0.246-1.682
	c-0.137-0.652-0.143-1.396-0.083-2.211c0.066-0.813,0.004-1.713,0.19-2.644c0.212-0.922,0.346-1.938,0.72-2.916
	c0.479-0.938,0.801-2.006,1.464-2.905c0.637-0.92,1.267-1.879,2.138-2.623c0.801-0.824,1.784-1.396,2.712-2.004
	c0.969-0.521,1.946-1.011,2.926-1.349c0.975-0.366,1.95-0.603,2.883-0.739c0.921-0.201,1.811-0.229,2.618-0.324
	c1.374-0.064,2.523,0,3.415,0.096c1.122-1.074,2.896-2.162,2.896-2.162c-0.364,0.361-0.51,2.328-0.51,2.328
	c0.363-0.654,1.527-1.311,1.527-1.311c-0.654,1.524,0,4.799,0,4.799c1.893,1.895,4.001,8.44,4.001,8.44l0.801,1.164
	C40.188,24.422,39.813,26.711,38.805,27.254z"/>
</svg>
