<?xml version="1.0" encoding="utf-8"?>
<!-- Generator: Adobe Illustrator 16.0.0, SVG Export Plug-In . SVG Version: 6.00 Build 0)  -->
<!DOCTYPE svg PUBLIC "-//W3C//DTD SVG 1.1//EN" "http://www.w3.org/Graphics/SVG/1.1/DTD/svg11.dtd">
<svg version="1.1" id="Layer_1" xmlns="http://www.w3.org/2000/svg" xmlns:xlink="http://www.w3.org/1999/xlink" x="0px" y="0px"
	 width="100px" height="100px" viewBox="0 0 100 100" enable-background="new 0 0 100 100" xml:space="preserve">
<path d="M67.505,44.029c-0.18-0.307-0.508-0.495-0.863-0.495H56.256V16.492c0-0.455-0.307-0.853-0.747-0.967
	c-0.441-0.116-0.901,0.081-1.125,0.478L32.487,54.977c-0.174,0.311-0.17,0.688,0.009,0.995c0.18,0.307,0.508,0.495,0.863,0.495
	h10.386V83.51c0,0.455,0.307,0.853,0.747,0.968c0.084,0.021,0.169,0.032,0.253,0.032c0.355,0,0.692-0.189,0.872-0.51l21.896-38.976
	C67.688,44.714,67.684,44.335,67.505,44.029z M45.745,79.688V55.467c0-0.553-0.448-1-1-1h-9.677l19.188-34.153v24.221
	c0,0.552,0.447,1,1,1h9.677L45.745,79.688z"/>
</svg>
