<?xml version="1.0" encoding="UTF-8" standalone="no"?>
<!-- Generator: Adobe Illustrator 17.0.0, SVG Export Plug-In . SVG Version: 6.00 Build 0)  -->

<svg
   xmlns:dc="http://purl.org/dc/elements/1.1/"
   xmlns:cc="http://creativecommons.org/ns#"
   xmlns:rdf="http://www.w3.org/1999/02/22-rdf-syntax-ns#"
   xmlns:svg="http://www.w3.org/2000/svg"
   xmlns="http://www.w3.org/2000/svg"
   xmlns:sodipodi="http://sodipodi.sourceforge.net/DTD/sodipodi-0.dtd"
   xmlns:inkscape="http://www.inkscape.org/namespaces/inkscape"
   version="1.1"
   id="Capa_1"
   x="0px"
   y="0px"
   width="64px"
   height="64px"
   viewBox="0 0 64 64"
   enable-background="new 0 0 64 64"
   xml:space="preserve"
   inkscape:version="0.48.4 r9939"
   sodipodi:docname="palette.svg"><metadata
   id="metadata3005"><rdf:RDF><cc:Work
       rdf:about=""><dc:format>image/svg+xml</dc:format><dc:type
         rdf:resource="http://purl.org/dc/dcmitype/StillImage" /></cc:Work></rdf:RDF></metadata><defs
   id="defs3003" /><sodipodi:namedview
   pagecolor="#ffffff"
   bordercolor="#666666"
   borderopacity="1"
   objecttolerance="10"
   gridtolerance="10"
   guidetolerance="10"
   inkscape:pageopacity="0"
   inkscape:pageshadow="2"
   inkscape:window-width="1920"
   inkscape:window-height="1017"
   id="namedview3001"
   showgrid="false"
   inkscape:zoom="12.368247"
   inkscape:cx="37.540333"
   inkscape:cy="32.976016"
   inkscape:window-x="-8"
   inkscape:window-y="-8"
   inkscape:window-maximized="1"
   inkscape:current-layer="layer1" />
<g
   inkscape:groupmode="layer"
   id="layer1"
   inkscape:label="Fondo"><g
     id="layer1-7"
     inkscape:label="Layer 1"
     transform="translate(481.66017,-1561.8554)"><path
       transform="matrix(0.02229812,0,0,0.02510688,-463.2544,1573.9964)"
       d="m 1880,758.07648 c 0,613.82502 -560.2837,1111.42862 -1251.42859,1111.42862 -691.144924,0 -1251.42859,-497.6036 -1251.42859,-1111.42862 0,-613.82506 560.283666,-1111.42859 1251.42859,-1111.42859 C 1319.7163,-353.35211 1880,144.25142 1880,758.07648 z"
       sodipodi:ry="1111.4286"
       sodipodi:rx="1251.4286"
       sodipodi:cy="758.07648"
       sodipodi:cx="628.57141"
       id="path3079"
       style="fill:#eeeeee"
       sodipodi:type="arc" /><path
       transform="matrix(0.15453865,0,0,0.10958182,-568.7824,1504.3164)"
       d="m 939.99997,808.07648 c 0,130.1814 -74.8324,235.71432 -167.14285,235.71432 -92.31045,0 -167.14286,-105.53292 -167.14286,-235.71432 0,-130.1814 74.83241,-235.71428 167.14286,-235.71428 92.31045,0 167.14285,105.53288 167.14285,235.71428 z"
       sodipodi:ry="235.71428"
       sodipodi:rx="167.14285"
       sodipodi:cy="808.07648"
       sodipodi:cx="772.85712"
       id="path3081"
       style="fill:#0197fd"
       sodipodi:type="arc" /></g></g><path
   d="M27.624,6.199"
   id="path2997" />
<path
   d="m 32.067,12.537 c -13.439,0 -24.333,8.472 -24.333,18.923 0,6.447 9.1,6.477 16.681,5.384 5.62,-0.811 10.052,1.353 10.052,5.656 0,4.303 4.753,7.643 9.917,5.282 C 51.574,44.494 56.4,38.416 56.4,31.46 56.4,21.009 45.506,12.537 32.067,12.537 z m 12.142,6.78 c 1.278,0 2.313,1.036 2.313,2.313 0,1.278 -1.036,2.313 -2.313,2.313 -1.278,0 -2.313,-1.036 -2.313,-2.313 0,-1.277 1.035,-2.313 2.313,-2.313 z M 16.73,26.606 c -1.278,0 -2.313,-1.036 -2.313,-2.313 0,-1.278 1.036,-2.313 2.313,-2.313 1.277,0 2.313,1.036 2.313,2.313 0,1.277 -1.036,2.313 -2.313,2.313 z m 7.568,-4.975 c -1.278,0 -2.313,-1.036 -2.313,-2.313 0,-1.278 1.036,-2.313 2.313,-2.313 1.278,0 2.313,1.036 2.313,2.313 10e-4,1.277 -1.035,2.313 -2.313,2.313 z M 34.38,20.817 c -1.278,0 -2.313,-1.036 -2.313,-2.313 0,-1.278 1.036,-2.313 2.313,-2.313 1.278,0 2.313,1.036 2.313,2.313 0,1.277 -1.035,2.313 -2.313,2.313 z m 8.311,23.048 c -2.116,0 -3.831,-1.715 -3.831,-3.831 0,-2.116 1.715,-3.831 3.831,-3.831 2.116,0 3.831,1.715 3.831,3.831 0,2.115 -1.715,3.831 -3.831,3.831 z m 6.145,-11.001 c -1.278,0 -2.313,-1.036 -2.313,-2.313 0,-1.278 1.036,-2.313 2.313,-2.313 1.278,0 2.313,1.036 2.313,2.313 0,1.277 -1.036,2.313 -2.313,2.313 z"
   id="path2999"
   inkscape:connector-curvature="0" />
<path
   style="fill:#993366"
   d="m 16.027769,26.66034 c -1.064169,-0.369263 -1.709508,-1.275376 -1.69344,-2.377736 0.0088,-0.604521 0.253831,-1.158983 0.714431,-1.616716 1.180927,-1.173572 3.212597,-0.862895 3.985752,0.609489 0.29161,0.555338 0.299812,1.635197 0.01638,2.156217 -0.574558,1.056181 -1.931273,1.607616 -3.023122,1.228746 l 0,0 z"
   id="path3007"
   inkscape:connector-curvature="0" /><path
   style="fill:#5c3566"
   d="m 23.450808,21.573179 c -1.064169,-0.369263 -1.709508,-1.275376 -1.69344,-2.377736 0.0088,-0.604521 0.253831,-1.158983 0.714431,-1.616716 1.180927,-1.173572 3.212597,-0.862895 3.985752,0.609489 0.29161,0.555338 0.299812,1.635197 0.01638,2.156217 -0.574558,1.056181 -1.931273,1.607616 -3.023122,1.228746 l 0,0 z"
   id="path3007-1"
   inkscape:connector-curvature="0" /><path
   style="fill:#55679e"
   d="m 33.629121,20.879202 c -1.064169,-0.369263 -1.709508,-1.275376 -1.69344,-2.377736 0.0088,-0.604521 0.253831,-1.158983 0.714431,-1.616716 1.180927,-1.173572 3.212597,-0.862895 3.985752,0.609489 0.29161,0.555338 0.299812,1.635197 0.01638,2.156217 -0.574558,1.056181 -1.931273,1.607616 -3.023122,1.228746 l 0,0 z"
   id="path3007-7"
   inkscape:connector-curvature="0" /><path
   style="fill:#336699"
   d="m 43.344784,23.96354 c -1.064169,-0.369263 -1.709508,-1.275376 -1.69344,-2.377736 0.0088,-0.604521 0.253831,-1.158983 0.714431,-1.616716 1.180927,-1.173572 3.212597,-0.862895 3.985752,0.609489 0.29161,0.555338 0.299812,1.635197 0.01638,2.156217 -0.574558,1.056181 -1.931273,1.607616 -3.023122,1.228746 l 0,0 z"
   id="path3007-4"
   inkscape:connector-curvature="0" /><path
   style="fill:#0197fd"
   d="m 48.048398,32.753901 c -1.064169,-0.369263 -1.709508,-1.275376 -1.69344,-2.377736 0.0088,-0.604521 0.253831,-1.158983 0.714431,-1.616716 1.180927,-1.173572 3.212597,-0.862895 3.985752,0.609489 0.29161,0.555338 0.299812,1.635197 0.01638,2.156217 -0.574558,1.056181 -1.931273,1.607616 -3.023122,1.228746 l 0,0 z"
   id="path3007-0"
   inkscape:connector-curvature="0" /><path
   style="fill:#339900"
   d="m 41.456354,44.072422 c -1.864003,-0.658042 -2.994381,-2.272776 -2.966236,-4.237232 0.01542,-1.077283 0.444611,-2.065359 1.2514,-2.88106 2.068518,-2.091358 5.627199,-1.537718 6.98146,1.086137 0.510786,0.989637 0.525153,2.913994 0.02869,3.842475 -1.006399,1.882163 -3.382827,2.864844 -5.295314,2.18968 l 0,0 z"
   id="path3007-9"
   inkscape:connector-curvature="0" /><path
   id="path3058"
   d="m 30.465539,23.816587 c 0.319885,0.491034 0.39833,0.843509 0.817578,1.767238 -0.271073,0.263749 -0.791427,0.87268 -1.152278,1.921599 -0.720826,-0.577331 -1.057269,-0.664842 -1.439038,-1.113336 -2.493695,-2.929192 -8.602853,-13.429312 -8.392795,-13.73317 0.220521,-0.323305 7.970063,7.798213 10.166533,11.157669 z m 1.537532,2.582793 c 1.083421,-0.267395 2.152893,0.687935 2.866746,3.075044 0.714726,2.387109 1.990773,3.342439 2.238311,3.284098 -1.331831,0.672134 -5.393561,2.390756 -6.402894,-4.151917 0.428838,-1.569123 1.297837,-2.207225 1.297837,-2.207225 z"
   inkscape:connector-curvature="0"
   style="fill:#aaaaaa" /><g
   inkscape:groupmode="layer"
   id="layer2"
   inkscape:label="Paleta" /></svg>