<?xml version="1.0" encoding="iso-8859-1"?>
<!-- Generator: Adobe Illustrator 17.1.0, SVG Export Plug-In . SVG Version: 6.00 Build 0)  -->
<!DOCTYPE svg PUBLIC "-//W3C//DTD SVG 1.1//EN" "http://www.w3.org/Graphics/SVG/1.1/DTD/svg11.dtd">
<svg version="1.1" id="Capa_1" xmlns="http://www.w3.org/2000/svg" xmlns:xlink="http://www.w3.org/1999/xlink" x="0px" y="0px"
	 viewBox="0 0 100 100" style="enable-background:new 0 0 100 100;" xml:space="preserve">
<g>
	<path d="M10.892,54.545h2.329C15.463,71.569,28.976,85.082,46,87.324v2.329c0,2.761,2.239,5,5,5s5-2.239,5-5v-2.329
		c17.024-2.242,30.537-15.754,32.779-32.779h2.329c2.761,0,5-2.239,5-5s-2.239-5-5-5h-2.329C86.537,27.521,73.024,14.008,56,11.766
		V9.437c0-2.761-2.239-5-5-5s-5,2.239-5,5v2.329c-17.024,2.242-30.537,15.754-32.779,32.779h-2.329c-2.761,0-5,2.239-5,5
		S8.131,54.545,10.892,54.545z M46,21.882v13.801c1.563-0.564,3.242-0.888,5-0.888s3.437,0.324,5,0.888V21.882
		c11.502,2.074,20.589,11.161,22.663,22.663H64.862c0.564,1.563,0.888,3.242,0.888,5s-0.324,3.437-0.888,5h13.801
		C76.589,66.047,67.502,75.134,56,77.208V63.407c-1.563,0.564-3.242,0.888-5,0.888s-3.437-0.324-5-0.888v13.801
		c-11.502-2.074-20.589-11.161-22.663-22.663h13.801c-0.564-1.563-0.888-3.242-0.888-5s0.323-3.437,0.888-5H23.337
		C25.411,33.043,34.498,23.956,46,21.882z"/>
	<circle cx="51" cy="49.545" r="6.25"/>
</g>
</svg>
